<?xml version="1.0" standalone="no"?>
<!DOCTYPE svg PUBLIC "-//W3C//DTD SVG 20010904//EN"
 "http://www.w3.org/TR/2001/REC-SVG-20010904/DTD/svg10.dtd">
<svg version="1.0" xmlns="http://www.w3.org/2000/svg"
 width="3334.000000pt" height="3334.000000pt" viewBox="0 0 3334.000000 3334.000000"
 preserveAspectRatio="xMidYMid meet">
<metadata>
Created by potrace 1.14, written by Peter Selinger 2001-2017
</metadata>
<g transform="translate(0.000000,3334.000000) scale(0.100000,-0.100000)"
fill="#000000" stroke="none">
<path d="M5749 24508 c0 -5 -1 -24 -1 -43 0 -19 1 -73 1 -120 l1 -84 38 -6
c344 -57 505 -153 566 -341 17 -52 19 -62 36 -154 32 -180 33 -217 37 -1177
l4 -923 -1399 0 -1400 0 0 1149 c0 632 -3 1154 -6 1160 -4 6 -49 9 -113 8
l-106 -2 -18 -30 c-10 -16 -40 -70 -68 -120 -119 -215 -346 -561 -525 -799
-83 -110 -238 -308 -256 -326 -3 -3 -32 -36 -65 -75 -181 -212 -448 -484 -695
-706 -164 -147 -471 -399 -611 -502 -13 -9 -78 -57 -145 -106 l-120 -88 2
-109 c1 -60 2 -114 3 -119 1 -7 138 -10 401 -10 220 0 406 -2 413 -5 9 -4 12
-414 13 -1985 0 -2093 2 -2235 39 -2555 46 -394 412 -850 848 -1055 83 -39
182 -78 233 -90 207 -52 280 -60 514 -60 166 1 228 5 310 20 14 3 40 7 57 10
18 3 68 14 110 25 425 105 785 374 1048 780 57 87 185 315 185 329 0 3 13 33
29 66 16 33 27 64 24 70 -2 5 -47 41 -99 78 -77 55 -98 66 -110 56 -8 -6 -14
-15 -14 -20 0 -4 -19 -36 -42 -71 -239 -363 -470 -541 -726 -563 -113 -9 -227
41 -332 146 -59 60 -124 173 -130 229 -1 3 -5 23 -10 45 -5 22 -12 65 -15 95
-3 30 -8 80 -12 110 -3 30 -7 1020 -9 2200 l-2 2145 751 0 752 0 3 21 3 21
645 1 645 0 -4 -2377 c-2 -1307 -6 -2392 -9 -2411 -4 -19 -9 -62 -13 -95 -8
-78 -32 -193 -51 -246 -55 -157 -293 -299 -546 -326 -66 -7 -59 10 -60 -151 0
-51 2 -96 6 -99 8 -8 3194 -8 3202 0 4 3 6 52 6 109 0 131 -1 142 -7 136 -4
-3 -25 -1 -48 4 -23 5 -49 11 -57 13 -137 28 -261 90 -346 172 -79 76 -133
232 -150 428 -3 39 -8 81 -11 95 -4 14 -7 877 -9 1918 l-2 1893 67 102 c238
359 472 580 715 677 79 32 91 35 156 46 19 3 38 8 42 10 10 6 159 5 193 -1
202 -39 357 -175 431 -381 28 -75 48 -200 61 -369 10 -129 12 -3761 3 -3855
-5 -47 -11 -107 -14 -135 -15 -141 -56 -288 -97 -347 -59 -84 -169 -167 -289
-215 -66 -27 -171 -55 -207 -56 -10 0 -13 -32 -13 -124 0 -121 0 -123 23 -124
28 -1 3121 -1 3164 0 l31 1 0 121 c-1 79 -5 122 -12 124 -6 2 -29 6 -51 9 -88
11 -124 19 -210 47 -97 30 -190 81 -242 131 -84 81 -125 221 -159 538 -3 30
-7 721 -9 1535 -3 1358 -8 1823 -20 2025 -10 157 -15 236 -20 278 -3 23 -7 63
-10 90 -14 120 -17 140 -25 187 -6 28 -12 68 -16 90 -3 22 -7 48 -10 57 -3 9
-6 25 -8 35 -40 206 -168 471 -311 643 -275 332 -617 535 -1005 596 -19 3 -46
8 -60 11 -42 9 -404 11 -451 3 -24 -4 -62 -11 -84 -14 -86 -13 -113 -18 -200
-43 -415 -115 -786 -357 -1236 -806 l-127 -126 -1 1802 c0 991 -1 1816 -1
1832 l0 30 -1290 0 c-709 0 -1290 -3 -1291 -7z"/>
<path d="M14927 22764 c-1 -1 -36 -4 -77 -8 -42 -3 -90 -10 -108 -15 -18 -5
-32 -8 -32 -6 0 8 -168 -54 -225 -83 -141 -71 -303 -217 -396 -357 -129 -194
-181 -381 -171 -620 3 -66 4 -154 2 -195 -2 -41 -3 -121 -4 -178 -1 -74 -4
-102 -13 -102 -17 0 -16 -4 6 -48 10 -20 22 -55 26 -77 4 -22 22 -83 40 -135
32 -94 37 -119 52 -270 10 -97 10 -4230 0 -4377 -4 -61 -9 -117 -11 -125 -3
-7 -7 -33 -10 -58 -10 -88 -38 -184 -71 -250 -78 -153 -337 -280 -597 -292
l-58 -3 0 -122 c0 -91 3 -123 13 -124 64 -3 3407 -3 3408 1 4 17 3 240 -1 241
-9 3 -44 7 -104 13 -214 23 -385 89 -484 187 -70 69 -122 215 -147 410 -4 30
-10 72 -13 94 -3 22 -7 1076 -9 2343 l-4 2303 25 77 c34 110 41 168 39 332 -1
80 -1 170 -1 200 3 186 1 331 -5 370 -13 88 -48 196 -93 285 -147 295 -431
514 -739 570 -50 9 -232 24 -238 19z"/>
<path d="M27588 22145 c-2 -2 -69 -7 -148 -10 -80 -3 -185 -7 -235 -10 -49 -2
-157 -7 -240 -10 -82 -3 -186 -7 -230 -10 -44 -3 -138 -7 -210 -10 -71 -3
-175 -7 -230 -10 -55 -3 -158 -8 -230 -10 -172 -6 -339 -15 -342 -19 -1 -1 -4
-1300 -6 -2887 -2 -1586 -7 -2902 -10 -2924 -3 -22 -8 -60 -10 -85 -11 -107
-41 -237 -69 -297 -26 -55 -127 -149 -203 -190 -78 -41 -192 -78 -285 -93 -41
-6 -82 -13 -90 -16 -12 -3 -15 -24 -14 -116 1 -62 2 -117 3 -123 1 -11 3257
-13 3268 -1 7 6 8 234 2 240 -2 2 -31 6 -64 10 -88 9 -240 52 -320 90 -129 61
-198 144 -238 286 -18 66 -37 175 -43 250 -3 30 -7 66 -11 80 -3 14 -8 368
-10 788 l-5 762 149 146 c81 80 173 170 204 200 l56 55 83 -123 c46 -68 88
-124 92 -126 4 -2 8 -8 8 -14 0 -8 56 -94 70 -108 3 -3 23 -32 45 -65 21 -33
41 -62 44 -65 3 -3 11 -13 16 -22 11 -18 85 -128 284 -418 66 -96 146 -213
178 -260 32 -47 150 -220 262 -385 294 -429 362 -541 421 -688 52 -131 39
-215 -48 -295 -35 -33 -112 -78 -112 -67 0 3 -9 1 -20 -5 -20 -10 -109 -23
-167 -24 l-33 0 0 -126 0 -125 1608 2 c884 1 1621 2 1639 2 l31 1 0 118 c0
125 -3 132 -51 132 -58 0 -205 43 -293 85 -98 47 -228 146 -284 215 -19 24
-47 58 -61 75 -114 135 -471 642 -1021 1450 -52 77 -128 187 -167 245 -128
186 -206 301 -216 318 -5 9 -13 19 -16 22 -3 3 -54 77 -114 165 -60 88 -136
201 -170 250 -34 50 -106 155 -160 235 -54 80 -142 208 -195 285 -53 77 -145
212 -205 300 -60 88 -126 185 -147 215 -21 30 -38 59 -38 64 0 5 51 59 114
120 62 61 268 262 457 448 189 185 367 357 394 383 28 25 75 70 105 99 288
271 598 535 741 628 206 134 452 211 739 232 l35 3 1 126 1 127 -1421 -2
-1421 -3 0 -125 c0 -76 4 -125 10 -125 21 -2 113 -16 185 -31 41 -8 86 -16 99
-19 14 -2 54 -14 90 -26 237 -77 354 -224 346 -431 -3 -69 -24 -168 -44 -213
-6 -11 -19 -41 -30 -67 -17 -41 -113 -194 -130 -208 -3 -3 -28 -32 -56 -65
-121 -145 -263 -287 -1464 -1463 -75 -74 -200 -197 -278 -275 l-143 -141 0
1836 c0 1566 -2 1837 -14 1841 -8 3 -16 4 -18 2z"/>
<path d="M21649 21846 c-2 -2 -37 -7 -77 -10 -40 -4 -78 -9 -85 -11 -7 -2 -30
-7 -52 -10 -162 -24 -408 -109 -580 -201 -288 -154 -532 -353 -937 -759 -3 -3
-6 146 -6 332 -1 186 -1 368 -1 406 l-1 67 -1290 0 c-1025 0 -1290 -3 -1291
-12 -1 -22 -1 -212 0 -228 1 -10 12 -17 32 -18 98 -8 281 -61 373 -110 171
-90 228 -220 263 -597 11 -109 10 -4328 0 -4440 -21 -229 -52 -363 -99 -430
-86 -122 -303 -229 -513 -252 -27 -3 -51 -6 -52 -7 -3 -2 -5 -153 -4 -211 l1
-40 1589 1 c874 1 1595 3 1603 6 11 5 14 31 13 121 0 64 -3 118 -5 120 -3 3
-24 7 -47 11 -209 28 -409 146 -463 272 -27 61 -49 128 -55 166 -7 40 -16 96
-21 122 -3 18 -9 65 -21 176 -3 30 -7 895 -9 1922 l-3 1866 71 109 c188 289
411 514 613 620 71 37 183 79 240 89 22 3 49 8 60 10 40 8 151 5 205 -5 113
-22 256 -117 331 -221 51 -70 97 -189 113 -295 36 -229 40 -438 40 -2225 0
-1457 -4 -1863 -18 -1935 -2 -11 -7 -51 -11 -89 -23 -222 -89 -353 -229 -454
-85 -62 -209 -113 -306 -128 -62 -9 -60 -4 -60 -134 0 -89 3 -120 13 -121 17
-1 3169 -1 3185 0 10 1 12 29 10 124 l-3 122 -30 3 c-16 2 -82 15 -145 29
-190 42 -319 113 -382 212 -49 78 -86 223 -102 406 -3 33 -9 89 -12 125 -4 36
-8 787 -10 1670 -1 883 -4 1668 -8 1745 -10 250 -29 512 -41 575 -2 10 -6 43
-9 72 -4 29 -8 64 -11 78 -3 14 -8 39 -10 55 -90 510 -455 982 -915 1185 -30
13 -57 25 -60 25 -3 1 -12 5 -20 8 -70 30 -211 61 -360 81 -83 12 -392 20
-401 12z"/>
<path d="M26640 14257 l0 -293 -48 46 c-70 68 -147 101 -246 107 -148 10 -278
-37 -372 -133 -64 -65 -98 -125 -129 -228 -31 -104 -35 -136 -36 -259 -1 -267
117 -486 313 -575 83 -38 195 -50 292 -32 76 14 169 68 205 119 12 17 26 31
30 31 4 0 6 -32 6 -70 l-1 -71 96 3 95 3 0 823 0 822 -102 0 -103 0 0 -293z
m-184 -337 c137 -67 204 -220 198 -456 -4 -159 -38 -257 -117 -334 -71 -70
-206 -97 -295 -59 -153 66 -225 207 -223 441 1 134 22 225 70 300 36 56 111
114 166 127 61 15 148 6 201 -19z"/>
<path d="M27803 14435 l0 -116 101 3 101 3 0 113 1 112 -101 0 -102 0 0 -115z"/>
<path d="M22828 14457 c-111 -68 -99 -38 -100 -244 l-1 -113 -73 0 -74 0 0
-80 0 -80 74 0 75 0 0 -412 c0 -227 3 -431 6 -453 14 -85 53 -139 125 -173 43
-20 272 -24 290 -6 9 9 8 33 -2 95 l-14 84 -52 -3 c-68 -4 -114 11 -134 46
-15 25 -17 74 -18 425 l0 396 102 3 103 3 0 75 0 75 -102 3 -103 3 -2 208 -3
208 -97 -60z"/>
<path d="M21188 14115 c-2 -2 -16 -6 -31 -9 -187 -34 -307 -168 -302 -338 2
-104 50 -188 138 -244 45 -30 192 -83 272 -99 52 -11 218 -60 250 -74 75 -34
100 -81 79 -152 -28 -94 -108 -141 -247 -145 -190 -4 -278 56 -324 225 -2 9
-13 11 -36 7 -17 -3 -52 -8 -77 -11 -79 -10 -84 -12 -87 -21 -6 -19 38 -138
68 -186 82 -128 206 -183 414 -183 162 0 220 11 315 60 74 38 161 141 178 212
14 58 7 196 -12 235 -40 82 -110 132 -246 177 -64 21 -308 90 -344 97 -76 15
-146 79 -146 135 0 40 40 92 92 117 62 31 189 38 268 16 67 -19 129 -79 148
-143 13 -41 15 -43 45 -37 18 3 50 8 72 11 53 7 87 13 92 19 2 2 -8 40 -23 85
-42 128 -127 199 -284 235 -53 13 -262 21 -272 11z"/>
<path d="M29285 14105 c-264 -67 -409 -278 -408 -595 0 -237 51 -375 179 -496
94 -87 222 -132 378 -132 105 0 164 12 251 52 209 95 302 263 309 556 8 306
-120 513 -374 606 -64 23 -257 28 -335 9z m244 -171 c158 -44 247 -187 255
-406 8 -248 -88 -419 -262 -463 -198 -51 -377 68 -422 282 -24 112 -15 282 20
375 64 173 233 260 409 212z"/>
<path d="M31135 14109 c-197 -39 -320 -177 -310 -349 6 -115 72 -209 180 -259
33 -16 121 -45 195 -65 277 -76 302 -85 338 -124 32 -33 34 -39 30 -89 -9
-101 -99 -164 -245 -168 -138 -5 -228 30 -282 108 -25 37 -42 81 -45 112 -1
10 -61 11 -106 2 -14 -3 -36 -6 -50 -6 -49 -2 -54 -12 -34 -81 31 -110 105
-204 197 -251 78 -40 130 -51 267 -54 106 -3 149 0 200 14 92 25 164 66 220
128 63 69 90 140 90 236 0 143 -81 246 -230 292 -30 9 -64 20 -75 24 -25 11
-129 41 -157 46 -60 12 -207 60 -236 77 -62 38 -78 101 -39 159 34 52 99 79
198 84 153 8 245 -39 283 -145 18 -50 19 -51 55 -45 118 17 153 23 157 28 2 2
-4 30 -13 63 -18 63 -50 122 -89 160 -35 36 -136 84 -206 98 -69 15 -231 17
-293 5z"/>
<path d="M23957 14093 c-6 -13 0 -866 7 -903 29 -150 93 -228 232 -282 49 -19
78 -23 174 -23 112 0 117 1 190 36 51 24 93 54 130 93 l55 56 -1 -85 -1 -86
91 3 91 3 0 598 0 597 -102 0 -103 0 -1 -352 c0 -427 -2 -453 -37 -530 -44
-95 -142 -157 -258 -163 -114 -6 -201 41 -239 131 -21 51 -24 107 -24 537 l-1
377 -99 0 c-55 0 -102 -3 -104 -7z"/>
<path d="M27803 13500 l0 -601 101 3 101 3 0 598 0 597 -101 0 -101 0 0 -600z"/>
</g>
</svg>
